<svg id="Capa_1" enable-background="new 0 0 512 512" height="512" viewBox="0 0 512 512" width="512" xmlns="http://www.w3.org/2000/svg"><g><path d="m421.334 216.23h-16.038l1.264-17.168c4.396-59.694-26.733-116.11-79.437-144.299-1.531-5.804-3.786-11.406-6.747-16.741-2.01-3.622-6.572-4.929-10.197-2.919-3.621 2.01-4.928 6.576-2.918 10.197 3.741 6.742 6.063 14.013 6.902 21.608 2.626 23.767-9.178 46.521-30.07 57.969-9.69 5.31-15.71 15.16-15.71 25.707v1.062c0 6.828-5.556 12.383-12.384 12.383s-12.383-5.555-12.383-12.383v-1.062c0-19.595 10.949-37.768 28.576-47.426 12.061-6.609 18.872-19.771 17.354-33.531-1.708-15.473-14.179-27.943-29.653-29.653-1.295-.143-2.604-.215-3.895-.215-8.444 0-16.229 2.974-22.513 8.601-7.149 6.403-11.25 15.574-11.25 25.161 0 6.828-5.555 12.384-12.383 12.384-2.52 0-4.865-.757-6.823-2.055-.088-.063-.177-.124-.268-.183-3.198-2.241-5.292-5.954-5.292-10.147 0-16.619 7.104-32.514 19.491-43.609 10.738-9.615 24.646-14.911 39.162-14.911 2.161 0 4.345.121 6.493.358 8.337.921 16.24 3.61 23.491 7.995 3.545 2.143 8.155 1.007 10.299-2.538 2.144-3.544 1.007-8.155-2.537-10.298-9.129-5.519-19.09-8.907-29.604-10.068-2.692-.298-5.431-.449-8.142-.449-18.215 0-35.676 6.655-49.168 18.739-10.794 9.668-18.394 22.239-22.038 36.002-52.755 28.186-83.88 84.53-79.477 144.321l1.264 17.168h-16.037c-21.063 0-38.197 17.135-38.197 38.197v3.357c0 34.761 27.607 63.196 62.048 64.529l.678 9.207c.593 8.056 2.217 16.139 4.825 24.024 1.042 3.151 3.973 5.146 7.119 5.146.78 0 1.574-.123 2.356-.381 3.933-1.301 6.065-5.543 4.765-9.476-2.222-6.717-3.604-13.585-4.106-20.415l-1.179-16.012c-.004-.069-.009-.137-.015-.206l-6.7-90.973c-.003-.043-.006-.085-.009-.128l-1.851-25.14c-3.693-50.151 20.368-97.612 62.073-124.404.007 5.534 1.664 10.689 4.505 14.998-7.067 4.94-13.634 10.662-19.6 17.083-2.818 3.035-2.645 7.78.391 10.6 1.444 1.342 3.275 2.005 5.103 2.005 2.013 0 4.02-.805 5.497-2.395 6.168-6.639 13.06-12.421 20.531-17.23 3.357 1.471 7.063 2.288 10.956 2.288 11.38 0 21.16-6.979 25.288-16.881 12.05-2.361 24.733-2.638 36.92-.828-1.678 2.802-4.088 5.169-7.077 6.807-22.432 12.292-36.367 35.505-36.367 60.581v1.062c0 7.776 3.258 14.806 8.481 19.795-4.791 4.436-8.023 10.533-8.772 17.366h-70.342c-4.478 0-8.027-3.78-7.729-8.252.853-12.823 3.987-25.19 9.317-36.759 1.733-3.762.089-8.217-3.673-9.95-3.764-1.735-8.218-.088-9.95 3.674-6.1 13.238-9.687 27.382-10.661 42.041-.87 13.102 9.554 24.247 22.696 24.247h78.019c.046.001.092.001.138.001.035 0 .071-.001.106-.001h39.436c.097.002.193.002.289 0h78.04c13.13 0 23.569-11.132 22.696-24.247-1.845-27.752-12.939-53.314-32.086-73.923-5.226-5.625-10.95-10.744-17.048-15.249 1.28-5.453 1.947-11.094 1.952-16.829 41.685 26.799 65.761 74.319 62.073 124.401l-1.853 25.153c-.003.032-.005.065-.007.098l-7.896 107.209c-4.735 64.288-85.572 111.281-125.846 111.281-29.225 0-78.811-24.633-106.047-61.304-2.47-3.326-7.168-4.018-10.492-1.549-3.325 2.47-4.02 7.167-1.549 10.493 10.412 14.018 23.497 26.237 37.524 36.277v22.151c0 11.603-6.76 22.343-17.22 27.363l-30.881 14.817c-4.912 2.357-7.499 7.713-6.291 13.026 1.209 5.313 5.858 9.024 11.308 9.024h247.296c5.449 0 10.099-3.711 11.307-9.024 1.209-5.313-1.378-10.67-6.29-13.026l-30.881-14.818c-10.461-5.02-17.221-15.76-17.221-27.363v-22.258c31.022-22.241 57.373-55.04 60.241-93.99l.678-9.207c34.441-1.333 62.048-29.767 62.048-64.529v-3.357c.001-21.061-17.134-38.197-38.196-38.197zm-353.865 41.555v-3.357c0-12.791 10.406-23.197 23.197-23.197h17.142l5.597 76c-25.643-1.871-45.936-23.333-45.936-49.446zm170.504-189.457c.97-3.356 2.868-6.417 5.52-8.793 3.489-3.124 7.813-4.775 12.506-4.775.743 0 1.5.042 2.25.125 7.545.833 13.799 6.298 15.814 13.446-11.896-1.747-24.185-1.747-36.09-.003zm18.017 110.702c6.023 0 11.091 4.172 12.463 9.778h-24.927c1.374-5.606 6.441-9.778 12.464-9.778zm77.644-63.182c16.775 18.057 26.496 40.432 28.109 64.708.297 4.468-3.245 8.252-7.729 8.252h-70.36c-.748-6.828-3.976-12.921-8.761-17.357 5.229-4.99 8.491-12.024 8.491-19.805v-1.062c0-5.066 3.034-9.875 7.919-12.552 13.855-7.592 24.528-19.14 31.031-32.74 3.989 3.225 7.772 6.758 11.3 10.556zm13.661 372.807 17.391 8.345h-217.37l17.39-8.345c15.632-7.5 25.731-23.549 25.731-40.886v-12.426c23.42 13.704 47.72 21.358 65.563 21.358 17.874 0 42.171-7.72 65.563-21.443v12.512c0 17.336 10.101 33.385 25.732 40.885zm97.236-230.87c0 26.113-20.293 47.575-45.938 49.445l5.598-76h17.143c12.791 0 23.197 10.406 23.197 23.197z"/><path d="m236.028 238.288h-59.765c-4.143 0-7.5 3.358-7.5 7.5s3.357 7.5 7.5 7.5h59.765c4.143 0 7.5-3.358 7.5-7.5s-3.357-7.5-7.5-7.5z"/><path d="m283.472 305.109v-39.35c0-6.877 5.595-12.472 12.472-12.472h39.793c4.143 0 7.5-3.358 7.5-7.5s-3.357-7.5-7.5-7.5h-39.793c-15.147 0-27.472 12.324-27.472 27.472v39.35c0 6.877-5.595 12.472-12.472 12.472-4.143 0-7.5 3.358-7.5 7.5s3.357 7.5 7.5 7.5c15.147 0 27.472-12.324 27.472-27.472z"/><path d="m208.632 380.577c0 4.142 3.357 7.5 7.5 7.5h79.736c4.143 0 7.5-3.358 7.5-7.5s-3.357-7.5-7.5-7.5h-79.736c-4.143 0-7.5 3.358-7.5 7.5z"/></g></svg>